<svg width="163" height="36" viewBox="0 0 163 36" fill="none" xmlns="http://www.w3.org/2000/svg">
<path fill-rule="evenodd" clip-rule="evenodd" d="M25.5627 9.59666L22.058 5.48706L0.572266 30.6807H40.6064H43.5437H47.6159H50.5532H54.6255H57.5627H61.635H64.5723L43.0866 5.48706L39.5818 9.59666L36.077 5.48706L32.5723 9.59666L29.0675 5.48706L25.5627 9.59666ZM55.6568 28.4458L41.0504 11.3188L43.0866 8.93126L59.729 28.4458H55.6568ZM5.41555 28.4458L22.058 8.93126L38.7004 28.4458H5.41555ZM41.6377 28.4458H45.7099L29.0675 8.93126L27.0314 11.3188C31.9768 17.0278 41.8215 28.4458 41.6377 28.4458ZM52.7195 28.4458H48.6472L34.0409 11.3188L36.077 8.93126L52.7195 28.4458Z" fill="#FE5D34"/>
<path d="M22.7691 24.0775H25.7151V21.1315H22.8527C22.8693 22.7384 22.8558 24.0775 22.7691 24.0775Z" fill="#FE5D34"/>
<path d="M18.6548 24.0775H21.6516V21.1315H18.6548V24.0775Z" fill="#FE5D34"/>
<path d="M21.6516 17.0172H18.6548V20.014H21.6516V17.0172Z" fill="#FE5D34"/>
<path d="M25.7151 17.0172H22.7691C22.7925 17.8318 22.8192 18.9283 22.8374 20.014H25.7151V17.0172Z" fill="#FE5D34"/>
<path d="M75.0324 27V8.54H83.1964C84.0457 8.54 84.8257 8.71333 85.5364 9.06C86.2644 9.40667 86.8884 9.87467 87.4084 10.464C87.9457 11.0533 88.3531 11.712 88.6304 12.44C88.9251 13.168 89.0724 13.9133 89.0724 14.676C89.0724 15.456 88.9337 16.21 88.6564 16.938C88.3964 17.6487 88.0151 18.2727 87.5124 18.81C87.0097 19.3473 86.4204 19.7633 85.7444 20.058L89.9564 27H86.0044L82.2084 20.812H78.6204V27H75.0324ZM78.6204 17.666H83.1184C83.5691 17.666 83.9677 17.536 84.3144 17.276C84.6611 16.9987 84.9384 16.6347 85.1464 16.184C85.3544 15.7333 85.4584 15.2307 85.4584 14.676C85.4584 14.0867 85.3371 13.5753 85.0944 13.142C84.8517 12.6913 84.5397 12.336 84.1584 12.076C83.7944 11.816 83.3957 11.686 82.9624 11.686H78.6204V17.666ZM99.3414 8.54H102.981L109.767 27H106.075L104.359 22.398H97.9114L96.2214 27H92.5294L99.3414 8.54ZM103.709 19.876L101.161 12.258L98.5094 19.876H103.709ZM113.792 27V8.54H126.194V11.686H117.38V16.444H124.712V19.356H117.38V27H113.792ZM130.722 27V8.54H143.124V11.686H134.31V16.444H141.642V19.356H134.31V27H130.722ZM149.732 8.54L154.282 17.224L158.91 8.54H162.784L156.076 20.552V27H152.514V20.5L145.832 8.54H149.732Z" fill="black"/>
</svg>
